<svg width="26" height="15" viewBox="0 0 26 15" fill="none" xmlns="http://www.w3.org/2000/svg">
<path d="M19.1144 2.23327C19.2952 1.23327 20.0185 1 20.6533 1C21.0149 1.00464 21.3737 1.06565 21.7165 1.18083C21.7165 1.18083 19.5014 2.01085 21.1614 4.16998C22.4887 5.89512 21.1288 7.60579 20.5303 8.22061C20.5019 8.25081 20.4972 8.2962 20.5187 8.3316C20.5402 8.367 20.5826 8.38374 20.6225 8.37251C21.5502 8.09042 23.9661 7.00723 23.1542 3.56058C25.0746 5.3689 25.0402 9.14286 21.816 10.1067C21.772 10.1188 21.7416 10.1587 21.7416 10.2043C21.7416 10.2499 21.772 10.2899 21.816 10.302C22.0634 10.3543 22.3154 10.381 22.5683 10.3816C24.6514 10.3816 25.4706 8.29476 25.4706 8.29476C25.4706 8.29476 25.986 12.4774 21.5574 12.4774C21.2148 12.4774 20.8194 12.6229 20.2731 12.8239C19.0521 13.2732 17.0773 14 13.2518 14C9.4254 14 7.45048 13.2729 6.2302 12.8236C5.68464 12.6227 5.28992 12.4774 4.94801 12.4774C0.519438 12.4774 1.01673 8.29837 1.01673 8.29837C1.01673 8.29837 1.8377 10.3852 3.9245 10.3852C4.17732 10.3846 4.42941 10.3579 4.67676 10.3056C4.72073 10.2935 4.75121 10.2536 4.75121 10.208C4.75121 10.1624 4.72073 10.1224 4.67676 10.1103C1.45072 9.14647 1.42179 5.37794 3.33861 3.5642C2.52848 7.01085 4.94439 8.08499 5.87025 8.37613C5.91012 8.38735 5.95258 8.37062 5.97407 8.33522C5.99557 8.29982 5.99082 8.25443 5.96248 8.22423C5.37116 7.60759 4.00768 5.90235 5.33499 4.1736C6.99864 2.01447 4.78164 1.18445 4.78164 1.18445C5.12452 1.06927 5.48326 1.00826 5.84494 1.00362C6.48508 1.00362 7.20841 1.23689 7.38382 2.23689C7.52705 3.04645 7.3025 3.62571 7.10072 4.14623C6.84141 4.81514 6.61971 5.38705 7.26447 6.22604C7.27844 6.24499 7.30059 6.25618 7.32414 6.25618C7.33984 6.25618 7.35492 6.25121 7.36737 6.24228L7.38382 6.22604C7.38382 6.22604 9.37297 3.9566 13.2518 3.9566C17.0614 3.9566 19.0429 6.14222 19.1144 6.22242C19.1283 6.24138 19.1505 6.25257 19.174 6.25257C19.1976 6.25257 19.2198 6.24138 19.2337 6.22242C19.8818 5.38308 19.6593 4.81105 19.3989 4.14178C19.1965 3.62148 18.9712 3.0424 19.1144 2.23327Z" fill="white" stroke="white" stroke-width="0.379784" stroke-linejoin="round"/>
<path d="M10.0925 8.93164C10.1046 8.6801 9.97735 8.44229 9.76131 8.31288C9.54527 8.18347 9.27554 8.18347 9.0595 8.31288C8.84346 8.44229 8.71618 8.6801 8.72834 8.93164C8.72834 9.3073 9.03395 9.41872 9.40961 9.41872C9.78526 9.41872 10.0925 9.31207 10.0925 8.93164Z" fill="#041E31" stroke="#041E31" stroke-width="0.2"/>
<path d="M17.8893 8.93164C17.9015 8.6801 17.7742 8.44229 17.5582 8.31288C17.3421 8.18347 17.0724 8.18347 16.8564 8.31288C16.6403 8.44229 16.5131 8.6801 16.5252 8.93164C16.5252 9.3073 16.8308 9.41872 17.2081 9.41872C17.5853 9.41872 17.8893 9.31207 17.8893 8.93164Z" fill="#041E31" stroke="#041E31" stroke-width="0.2"/>
<path d="M13.308 11.6169C12.2632 11.6103 11.2364 11.3439 10.3202 10.8417C10.2327 10.7897 10.1754 10.6989 10.1659 10.5976C10.1565 10.4962 10.1961 10.3964 10.2725 10.3291C10.3715 10.2457 10.5113 10.2306 10.6259 10.2909C11.2307 10.6268 12.2303 10.8321 13.308 10.8321C14.3856 10.8321 15.3772 10.6268 15.9917 10.2909C16.1063 10.2306 16.246 10.2457 16.345 10.3291C16.4214 10.3964 16.461 10.4962 16.4516 10.5976C16.4421 10.6989 16.3848 10.7897 16.2973 10.8417C15.3806 11.3441 14.3533 11.6105 13.308 11.6169Z" fill="#041E31" stroke="#041E31" stroke-width="0.2"/>
</svg>
